<?xml version="1.0"?>


<svg width="158.75mm" height="193.97585mm" viewBox="0 0 158.75 193.97585" version="1.1" id="svg1" xmlns:inkscape="http://www.inkscape.org/namespaces/inkscape" xmlns:sodipodi="http://sodipodi.sourceforge.net/DTD/sodipodi-0.dtd" xmlns="http://www.w3.org/2000/svg" xmlns:svg="http://www.w3.org/2000/svg">
  <namedview id="namedview1" pagecolor="#ffffff" bordercolor="#000000" borderopacity="0.25"></namedview>
  <defs id="defs1"></defs>
  <g id="layer1" transform="translate(-79.110419,-143.93334)">
    <g id="g40" transform="matrix(0.26458333,0,0,0.26458333,23.902474,86.349959)">
      <g id="g35" transform="translate(8.6599522,8.5689803)" style="fill:#1e1e1b;fill-opacity:1">
        <rect style="opacity:1;fill:#1e1e1b;fill-opacity:1;stroke:none;stroke-width:1;stroke-dasharray:none;stroke-opacity:1" id="rect34" width="80" height="80" x="460" y="698.56897" rx="9.1428566" ry="9.1428566"></rect>
        <path id="path35" style="display:inline;opacity:1;fill:#1e1e1b;fill-opacity:1;stroke:none;stroke-width:1;stroke-dasharray:none;stroke-opacity:1" d="m 320,209.06898 c -66.48,0 -120,53.52 -120,120 v 360 c 0,66.48 53.52,120 120,120 h 109.5 v -80.02344 h -61.52344 c -48.752,0 -88,-39.248 -88,-88 v -264 c 0,-48.752 39.248,-88 88,-88 h 264 c 48.752,0 88,39.248 88,88 v 264 c 0,48.752 -39.248,88 -88,88 H 569.5 v 80.02344 H 680 c 66.48,0 120,-53.52 120,-120 v -360 c 0,-66.48 -53.52,-120 -120,-120 z"></path>
      </g>
      <g id="g39">
        <path style="font-weight:bold;font-size:110px;line-height:4px;font-family:Montserrat;-inkscape-font-specification:&#39;Montserrat Bold&#39;;letter-spacing:8px;fill:#1e1e1b" d="m 233.1251,949.45502 v -77 h 34.98 q 12.54,0 22.11,4.84 9.57,4.73 14.96,13.31 5.39,8.58 5.39,20.35 0,11.66 -5.39,20.35 -5.39,8.58 -14.96,13.42 -9.57,4.73 -22.11,4.73 z m 17.82,-14.63 h 16.28 q 7.7,0 13.31,-2.86 5.72,-2.97 8.8,-8.36 3.19,-5.39 3.19,-12.65 0,-7.37 -3.19,-12.65 -3.08,-5.39 -8.8,-8.25 -5.61,-2.97 -13.31,-2.97 h -16.28 z m 81.04003,14.63 v -77 h 58.19 v 14.3 h -40.48 v 48.4 h 41.91 v 14.3 z m 16.39,-32.12 v -13.86 h 37.07 v 13.86 z" id="path36"></path>
        <path style="font-weight:bold;font-size:110px;line-height:4px;font-family:Montserrat;-inkscape-font-specification:&#39;Montserrat Bold&#39;;letter-spacing:12px;fill:#1e1e1b" d="m 413.79508,949.45502 v -77 h 33.33 q 10.34,0 17.82,3.41 7.48,3.3 11.55,9.57 4.07,6.27 4.07,14.96 0,8.58 -4.07,14.85 -4.07,6.27 -11.55,9.68 -7.48,3.3 -17.82,3.3 h -23.43 l 7.92,-8.03 v 29.26 z m 17.82,-27.28 -7.92,-8.47 h 22.44 q 8.25,0 12.32,-3.52 4.07,-3.52 4.07,-9.79 0,-6.38 -4.07,-9.9 -4.07,-3.52 -12.32,-3.52 h -22.44 l 7.92,-8.47 z m 73.60002,27.28 v -77 h 17.82 v 62.48 h 38.61 v 14.52 z" id="path37"></path>
        <path style="font-weight:bold;font-size:110px;line-height:4px;font-family:Montserrat;-inkscape-font-specification:&#39;Montserrat Bold&#39;;letter-spacing:6px;fill:#1e1e1b" d="m 621.0551,950.77502 q -9.13,0 -16.94,-2.97 -7.7,-2.97 -13.42,-8.36 -5.61,-5.39 -8.8,-12.65 -3.08,-7.26 -3.08,-15.84 0,-8.58 3.08,-15.84 3.19,-7.26 8.91,-12.65 5.72,-5.39 13.42,-8.36 7.7,-2.97 16.72,-2.97 9.13,0 16.72,2.97 7.7,2.97 13.31,8.36 5.72,5.39 8.91,12.65 3.19,7.15 3.19,15.84 0,8.58 -3.19,15.95 -3.19,7.26 -8.91,12.65 -5.61,5.28 -13.31,8.25 -7.59,2.97 -16.61,2.97 z m -0.11,-15.18 q 5.17,0 9.46,-1.76 4.4,-1.76 7.7,-5.06 3.3,-3.3 5.06,-7.81 1.87,-4.51 1.87,-10.01 0,-5.5 -1.87,-10.01 -1.76,-4.51 -5.06,-7.81 -3.19,-3.3 -7.59,-5.06 -4.4,-1.76 -9.57,-1.76 -5.17,0 -9.57,1.76 -4.29,1.76 -7.59,5.06 -3.3,3.3 -5.17,7.81 -1.76,4.51 -1.76,10.01 0,5.39 1.76,10.01 1.87,4.51 5.06,7.81 3.3,3.3 7.7,5.06 4.4,1.76 9.57,1.76 z m 61.55,13.86 v -77 h 17.82 v 77 z" id="path38"></path>
        <path style="font-weight:bold;font-size:110px;line-height:4px;font-family:Montserrat;-inkscape-font-specification:&#39;Montserrat Bold&#39;;letter-spacing:8px;fill:#1e1e1b" d="m 724.57499,949.45502 v -77 h 58.19 v 14.3 h -40.48 v 48.4 h 41.91 v 14.3 z m 16.39,-32.12 v -13.86 h 37.07 v 13.86 z" id="path39"></path>
      </g>
    </g>
  </g>
</svg>